<?xml version="1.0" encoding="UTF-8" standalone="no"?>
<svg
   xmlns:dc="http://purl.org/dc/elements/1.1/"
   xmlns:cc="http://creativecommons.org/ns#"
   xmlns:rdf="http://www.w3.org/1999/02/22-rdf-syntax-ns#"
   xmlns:svg="http://www.w3.org/2000/svg"
   xmlns="http://www.w3.org/2000/svg"
   xmlns:sodipodi="http://sodipodi.sourceforge.net/DTD/sodipodi-0.dtd"
   xmlns:inkscape="http://www.inkscape.org/namespaces/inkscape"
   width="256mm"
   height="256mm"
   viewBox="0 0 256 256"
   version="1.1"
   id="svg8"
   inkscape:version="1.0.2 (e86c870879, 2021-01-15)"
   sodipodi:docname="icon.svg"
   inkscape:export-filename="/home/tomkarho/Projects/Desktop/Caidi/Caidi.App/Assets/icon.png"
   inkscape:export-xdpi="25"
   inkscape:export-ydpi="25">
  <defs
     id="defs2" />
  <sodipodi:namedview
     id="base"
     pagecolor="#ffffff"
     bordercolor="#666666"
     borderopacity="1.0"
     inkscape:pageopacity="0.0"
     inkscape:pageshadow="2"
     inkscape:zoom="0.7"
     inkscape:cx="289.99541"
     inkscape:cy="540.23046"
     inkscape:document-units="px"
     inkscape:current-layer="layer1"
     inkscape:document-rotation="0"
     showgrid="true"
     inkscape:window-width="2560"
     inkscape:window-height="1365"
     inkscape:window-x="2560"
     inkscape:window-y="743"
     inkscape:window-maximized="1">
    <inkscape:grid
       type="xygrid"
       id="grid833" />
  </sodipodi:namedview>
  <metadata
     id="metadata5">
    <rdf:RDF>
      <cc:Work
         rdf:about="">
        <dc:format>image/svg+xml</dc:format>
        <dc:type
           rdf:resource="http://purl.org/dc/dcmitype/StillImage" />
        <dc:title></dc:title>
      </cc:Work>
    </rdf:RDF>
  </metadata>
  <g
     inkscape:label="Layer 1"
     inkscape:groupmode="layer"
     id="layer1"
     style="display:inline">
    <g
       style="fill:currentColor"
       id="g852"
       transform="matrix(9.4345328,0,0,9.4507294,13.546053,51.507863)">
      <path
         d="m 3.5478583,3.4322123 a 2.1755469,2.1755469 0 1 1 -4.35109379,0 2.1755469,2.1755469 0 0 1 4.35109379,0 z"
         id="path835"
         style="fill:#000080;stroke-width:0.725182" />
      <path
         d="m 5.7234051,5.6077592 a 2.1755469,2.1755469 0 1 1 0,-4.3510938 2.1755469,2.1755469 0 0 1 0,4.3510938 z"
         id="path837"
         style="fill:#000080;stroke-width:0.725182" />
      <path
         d="M 5.7234051,5.6077592 H 6.0859963 A 1.4503646,1.4503646 0 0 1 7.5240331,6.868126 L 9.7793501,5.8659241 A 0.72518229,0.72518229 0 0 1 10.799682,6.5280155 V 11.939325 A 0.72518229,0.72518229 0 0 1 9.7800753,12.601417 L 7.5240331,11.599215 A 1.4503646,1.4503646 0 0 1 6.0859963,12.859582 H 0.64712909 A 1.4503646,1.4503646 0 0 1 -0.80323549,11.409217 V 7.0581237 A 1.4503646,1.4503646 0 0 1 0.64712909,5.6077592 Z"
         id="path839"
         style="fill:#000080;stroke-width:0.725182" />
      <g
         style="fill:currentColor"
         id="g874"
         transform="matrix(0.83346854,0,0,0.83346854,11.590197,0.76412396)">
        <path
           d="m 12,13 c 0,1.105 -1.12,2 -2.5,2 C 8.12,15 7,14.105 7,13 c 0,-1.105 1.12,-2 2.5,-2 1.38,0 2.5,0.895 2.5,2 z"
           id="path854"
           style="fill:#008000" />
        <path
           fill-rule="evenodd"
           d="M 12,3 V 13 H 11 V 3 Z"
           id="path856"
           style="fill:#008000" />
        <path
           d="m 11,2.82 a 1,1 0 0 1 0.804,-0.98 l 3,-0.6 A 1,1 0 0 1 16,2.22 V 4 l -5,1 z"
           id="path858"
           style="fill:#008000" />
        <path
           fill-rule="evenodd"
           d="M 0,11.5 A 0.5,0.5 0 0 1 0.5,11 H 4 a 0.5,0.5 0 0 1 0,1 H 0.5 A 0.5,0.5 0 0 1 0,11.5 Z m 0,-4 A 0.5,0.5 0 0 1 0.5,7 H 8 A 0.5,0.5 0 0 1 8,8 H 0.5 A 0.5,0.5 0 0 1 0,7.5 Z m 0,-4 A 0.5,0.5 0 0 1 0.5,3 H 8 A 0.5,0.5 0 0 1 8,4 H 0.5 A 0.5,0.5 0 0 1 0,3.5 Z"
           id="path860"
           style="fill:#008000" />
      </g>
    </g>
  </g>
</svg>
